<svg width="81" height="23" viewBox="0 0 81 23" fill="none" xmlns="http://www.w3.org/2000/svg">
<g id="logo/fortnite">
<path id="Vector" d="M0 11.2424C0 17.4271 0.01537 22.4849 0.0358634 22.4849C0.0666034 22.4849 4.24213 21.715 4.75446 21.6131L5.02087 21.5621V17.4322V13.3074H6.60911H8.19734V12.5528C8.19734 12.1398 8.21271 11.064 8.23321 10.1564L8.26395 8.51468H6.64497H5.02087V6.70467V4.89466H6.89089C7.92068 4.89466 8.76091 4.88446 8.76091 4.86916C8.76091 4.81308 9.17078 0.458849 9.1964 0.239609L9.22714 -2.67029e-05H4.61101H0V11.2424Z" fill="white"/>
<path id="Vector_2" d="M76.6349 0.657721L72.5465 0.994228V11.1507V21.3072L72.7156 21.3327C72.8642 21.3582 80.7797 21.9292 80.9385 21.9241C80.9846 21.9241 81 21.3836 81 19.4003V16.8765H79.2581H77.5161V15.041V13.2054H79.0019H80.4877V11.013V8.82063H78.9507H77.4137V7.36752V5.91441L77.5315 5.89401C77.593 5.87872 78.1156 5.85832 78.6945 5.83793C79.2735 5.82263 80.0266 5.79714 80.375 5.77674L81 5.74615V3.02858V0.305914L80.8617 0.311012C80.7797 0.316111 78.879 0.46907 76.6349 0.657721Z" fill="white"/>
<path id="Vector_3" d="M50.3881 1.36133C50.4393 1.87119 51.0234 9.55482 51.0131 9.56502C51.008 9.57522 50.2549 7.73461 49.3378 5.47592C48.4258 3.21723 47.6573 1.34603 47.6368 1.31034C47.6061 1.25426 46.1921 1.51429 43.8712 2.00376L43.6509 2.04964V10.8142V19.5787H45.9308H48.2107L48.185 19.2116C48.1338 18.5284 47.9442 12.8791 47.9647 12.6548C47.9801 12.4559 48.1338 12.8026 49.5888 16.3003C50.47 18.4264 51.2181 20.1855 51.2385 20.2161C51.2693 20.2466 51.9814 20.2008 53.1905 20.0988C54.2408 20.007 55.1015 19.9254 55.1015 19.9203C55.1067 19.9152 55.0811 16.2391 55.0452 11.7523C55.0093 7.26554 54.9786 3.02858 54.9786 2.33007L54.9735 1.07071H52.668H50.3573L50.3881 1.36133Z" fill="white"/>
<path id="Vector_4" d="M14.3198 1.38168C11.256 1.58563 9.57045 3.67097 9.03762 7.90283C8.93003 8.77979 8.88392 11.7574 8.96077 12.7975C9.21694 16.1728 10.134 18.3652 11.7632 19.4818C12.6393 20.0784 13.956 20.3996 15.2574 20.3231C16.738 20.2415 17.7473 19.8234 18.6541 18.921C19.397 18.1817 19.8018 17.4882 20.1911 16.3054C20.7342 14.6534 20.9801 12.1857 20.8572 9.61597C20.7188 6.74034 20.2833 4.95072 19.3868 3.57919C18.5312 2.27394 17.1786 1.49385 15.6006 1.39698C15.3496 1.38168 15.0832 1.36639 15.0114 1.35619C14.9397 1.35109 14.6323 1.36129 14.3198 1.38168ZM15.0422 5.3892C15.4162 5.792 15.575 7.39806 15.575 10.8345C15.575 15.0664 15.3086 16.8254 14.7245 16.4481C14.4735 16.2799 14.2839 15.459 14.1917 14.0977C14.1251 13.1034 14.1251 8.55035 14.1917 7.59691C14.289 6.25087 14.4632 5.50647 14.7245 5.32802C14.868 5.22605 14.8936 5.23115 15.0422 5.3892Z" fill="white"/>
<path id="Vector_5" d="M21.5181 10.651V19.9356H23.8697H26.2162L26.2469 19.2881C26.2674 18.9261 26.3084 17.7534 26.3391 16.6725C26.3699 15.5916 26.4109 14.6432 26.4313 14.5667C26.457 14.4597 26.6773 15.148 27.3536 17.473C27.8454 19.1504 28.2604 20.5423 28.2809 20.5627C28.3219 20.6086 33.1276 20.2313 33.1788 20.1803C33.1942 20.1599 32.6613 18.4927 31.9953 16.4634L30.7862 12.7822L31.0424 12.5579C31.8928 11.8186 32.5947 10.391 32.7945 8.97864C32.8816 8.36171 32.8253 6.83212 32.6921 6.26617C32.1797 4.04827 30.8221 2.32493 29.0904 1.68251C28.3372 1.40718 28.3987 1.41228 24.838 1.39189L21.5181 1.37149V10.651ZM26.8002 5.76651C27.164 5.94496 27.4611 6.40384 27.62 7.03607C27.7276 7.45925 27.7122 8.80019 27.5943 9.22848C27.374 10.0341 26.9847 10.5031 26.4006 10.6816L26.2828 10.7122V8.16286V5.60845L26.4518 5.64414C26.5389 5.65944 26.6978 5.71552 26.8002 5.76651Z" fill="white"/>
<path id="Vector_6" d="M32.9431 3.79843V6.16929H34.2496H35.556V13.0015V19.8336H38.0152H40.4744V13.4093V6.98507H41.8065H43.1386V4.61421V2.24335L43.0258 2.22295C42.9183 2.19746 33.148 1.42247 33.0097 1.42757C32.9585 1.42757 32.9431 1.93743 32.9431 3.79843Z" fill="white"/>
<path id="Vector_7" d="M56.0493 11.1915V20.4455H58.5854H61.1214V11.1915V1.93748H58.5854H56.0493V11.1915Z" fill="white"/>
<path id="Vector_8" d="M66.9109 2.57988C64.134 2.72774 61.8234 2.85011 61.7773 2.85011C61.6902 2.85521 61.6851 3.00307 61.6851 5.25156V7.64792H62.9915H64.298V14.3526V21.0573H66.7828H69.2676V14.0722V7.08707H70.6509H72.0342V4.69072C72.0342 3.37017 72.0188 2.29946 71.9983 2.29946C71.9727 2.30456 69.6877 2.42692 66.9109 2.57988Z" fill="white"/>
</g>
</svg>
