<?xml version="1.0" encoding="utf-8"?>
<!-- Generator: Adobe Illustrator 24.1.1, SVG Export Plug-In . SVG Version: 6.00 Build 0)  -->
<svg version="1.1" id="Camada_1" xmlns="http://www.w3.org/2000/svg" xmlns:xlink="http://www.w3.org/1999/xlink" x="0px" y="0px"
	 viewBox="0 0 1581 441" style="enable-background:new 0 0 1581 441;" xml:space="preserve">
<style type="text/css">
	.st0{fill:#FFFFFF;}
</style>
<g transform="translate(0.000000,441.000000) scale(0.100000,-0.100000)">
	<path class="st0" d="M0,2205C0,992,3,0,7,0c6,0,821,151,921,171l52,10v810v809h310h310v148c0,81,3,292,7,470l6,322h-316H980v355
		v355h365c201,0,365,2,365,5c0,11,80,865,85,908l6,47H900H0V2205z"/>
	<path class="st0" d="M14958,4281l-798-66V2223V231l33-5c29-5,1574-117,1605-116c9,0,12,106,12,495v495h-340h-340v360v360h290h290
		v430v430h-300h-300v285v285l23,4c12,3,114,7,227,11c113,3,260,8,328,12l122,6v533v534l-27-1C15767,4348,15396,4318,14958,4281z"/>
	<path class="st0" d="M9835,4143c10-100,124-1607,122-1609c-1-2-148,359-327,802c-178,443-328,810-332,817c-6,11-282-40-735-136
		l-43-9V2289V570h445h445l-5,72c-10,134-47,1242-43,1286c3,39,33-29,317-715c172-417,318-762,322-768c6-6,145,3,381,23
		c205,18,373,34,373,35c1,1-4,722-11,1602s-13,1711-13,1848l-1,247h-450h-451L9835,4143z"/>
	<path class="st0" d="M2795,4139c-598-40-927-449-1031-1279c-21-172-30-756-15-960c50-662,229-1092,547-1311
		c171-117,428-180,682-165c289,16,486,98,663,275c145,145,224,281,300,513c106,324,154,808,130,1312c-27,564-112,915-287,1184
		c-167,256-431,409-739,428c-49,3-101,6-115,8C2916,4145,2856,4143,2795,4139z M2936,3353c73-79,104-394,104-1068
		c0-830-52-1175-166-1101c-49,33-86,194-104,461c-13,195-13,1088,0,1275c19,264,53,410,104,445C2902,3385,2907,3384,2936,3353z"/>
	<path class="st0" d="M4200,2321V500h459h458l6,127c4,71,12,301,18,513s14,398,18,413c5,21,48-114,180-570c96-329,177-602,181-606
		c8-9,946,65,956,75c3,4-101,331-231,729l-236,722l50,44c166,145,303,425,342,702c17,121,6,421-20,532c-100,435-365,773-703,899
		c-147,54-135,53-830,57l-648,4V2321z M5231,3279c71-35,129-125,160-249c21-83,18-346-5-430c-43-158-119-250-233-285l-23-6v500v501
		l33-7C5180,3300,5211,3289,5231,3279z"/>
	<path class="st0" d="M6430,3665v-465h255h255V1860V520h480h480v1260v1260h260h260v465v465l-22,4c-21,5-1928,157-1955,156
		C6433,4130,6430,4030,6430,3665z"/>
	<path class="st0" d="M10940,2215V400h495h495v1815v1815h-495h-495V2215z"/>
	<path class="st0" d="M13060,3904c-542-29-993-53-1002-53c-17-1-18-30-18-471v-470h255h255V1595V280h485h485v1370v1370h270h270v470
		c0,259-3,469-7,469C14048,3958,13602,3934,13060,3904z"/>
</g>
</svg>
